G04 (created by PCBNEW (2013-07-07 BZR 4022)-stable) date 11/10/2013 16:08:40*
%MOIN*%
G04 Gerber Fmt 3.4, Leading zero omitted, Abs format*
%FSLAX34Y34*%
G01*
G70*
G90*
G04 APERTURE LIST*
%ADD10C,0.00590551*%
%ADD11C,0.00984252*%
%ADD12C,0.00393701*%
G04 APERTURE END LIST*
G54D10*
G54D11*
X42875Y-37720D02*
X42875Y-36932D01*
X43175Y-36932D01*
X43250Y-36970D01*
X43288Y-37007D01*
X43325Y-37082D01*
X43325Y-37195D01*
X43288Y-37270D01*
X43250Y-37307D01*
X43175Y-37345D01*
X42875Y-37345D01*
X43625Y-37682D02*
X43738Y-37720D01*
X43925Y-37720D01*
X44000Y-37682D01*
X44038Y-37645D01*
X44075Y-37570D01*
X44075Y-37495D01*
X44038Y-37420D01*
X44000Y-37382D01*
X43925Y-37345D01*
X43775Y-37307D01*
X43700Y-37270D01*
X43663Y-37232D01*
X43625Y-37157D01*
X43625Y-37082D01*
X43663Y-37007D01*
X43700Y-36970D01*
X43775Y-36932D01*
X43963Y-36932D01*
X44075Y-36970D01*
X44975Y-36895D02*
X44300Y-37907D01*
X45200Y-37007D02*
X45238Y-36970D01*
X45313Y-36932D01*
X45500Y-36932D01*
X45575Y-36970D01*
X45613Y-37007D01*
X45650Y-37082D01*
X45650Y-37157D01*
X45613Y-37270D01*
X45163Y-37720D01*
X45650Y-37720D01*
X46587Y-37720D02*
X46587Y-36932D01*
X47037Y-37720D02*
X46700Y-37270D01*
X47037Y-36932D02*
X46587Y-37382D01*
X47675Y-37682D02*
X47600Y-37720D01*
X47450Y-37720D01*
X47375Y-37682D01*
X47337Y-37607D01*
X47337Y-37307D01*
X47375Y-37232D01*
X47450Y-37195D01*
X47600Y-37195D01*
X47675Y-37232D01*
X47712Y-37307D01*
X47712Y-37382D01*
X47337Y-37457D01*
X47975Y-37195D02*
X48162Y-37720D01*
X48350Y-37195D02*
X48162Y-37720D01*
X48087Y-37907D01*
X48050Y-37945D01*
X47975Y-37982D01*
X48650Y-37720D02*
X48650Y-36932D01*
X48650Y-37232D02*
X48725Y-37195D01*
X48875Y-37195D01*
X48950Y-37232D01*
X48987Y-37270D01*
X49025Y-37345D01*
X49025Y-37570D01*
X48987Y-37645D01*
X48950Y-37682D01*
X48875Y-37720D01*
X48725Y-37720D01*
X48650Y-37682D01*
X49475Y-37720D02*
X49400Y-37682D01*
X49362Y-37645D01*
X49325Y-37570D01*
X49325Y-37345D01*
X49362Y-37270D01*
X49400Y-37232D01*
X49475Y-37195D01*
X49587Y-37195D01*
X49662Y-37232D01*
X49700Y-37270D01*
X49737Y-37345D01*
X49737Y-37570D01*
X49700Y-37645D01*
X49662Y-37682D01*
X49587Y-37720D01*
X49475Y-37720D01*
X50412Y-37720D02*
X50412Y-37307D01*
X50374Y-37232D01*
X50299Y-37195D01*
X50149Y-37195D01*
X50074Y-37232D01*
X50412Y-37682D02*
X50337Y-37720D01*
X50149Y-37720D01*
X50074Y-37682D01*
X50037Y-37607D01*
X50037Y-37532D01*
X50074Y-37457D01*
X50149Y-37420D01*
X50337Y-37420D01*
X50412Y-37382D01*
X50787Y-37720D02*
X50787Y-37195D01*
X50787Y-37345D02*
X50824Y-37270D01*
X50862Y-37232D01*
X50937Y-37195D01*
X51012Y-37195D01*
X51612Y-37720D02*
X51612Y-36932D01*
X51612Y-37682D02*
X51537Y-37720D01*
X51387Y-37720D01*
X51312Y-37682D01*
X51274Y-37645D01*
X51237Y-37570D01*
X51237Y-37345D01*
X51274Y-37270D01*
X51312Y-37232D01*
X51387Y-37195D01*
X51537Y-37195D01*
X51612Y-37232D01*
X46175Y-38921D02*
X46175Y-38396D01*
X46175Y-38546D02*
X46212Y-38471D01*
X46250Y-38433D01*
X46325Y-38396D01*
X46400Y-38396D01*
X46962Y-38883D02*
X46887Y-38921D01*
X46737Y-38921D01*
X46662Y-38883D01*
X46625Y-38808D01*
X46625Y-38508D01*
X46662Y-38433D01*
X46737Y-38396D01*
X46887Y-38396D01*
X46962Y-38433D01*
X47000Y-38508D01*
X47000Y-38583D01*
X46625Y-38658D01*
X47262Y-38396D02*
X47450Y-38921D01*
X47637Y-38396D01*
X48350Y-38921D02*
X47900Y-38921D01*
X48125Y-38921D02*
X48125Y-38133D01*
X48050Y-38246D01*
X47975Y-38321D01*
X47900Y-38358D01*
G54D12*
X35433Y-51181D02*
X35433Y-31496D01*
X55118Y-51181D02*
X35433Y-51181D01*
X55118Y-31496D02*
X55118Y-51181D01*
X35433Y-31496D02*
X55118Y-31496D01*
G54D10*
X44330Y-35039D02*
X43858Y-35039D01*
X39921Y-41437D02*
X38031Y-41437D01*
X39921Y-46751D02*
X38031Y-46751D01*
X39921Y-46751D02*
X39921Y-41437D01*
X34842Y-41437D02*
X36102Y-41437D01*
X34842Y-46751D02*
X36102Y-46751D01*
X34842Y-46751D02*
X34842Y-41437D01*
X41889Y-33987D02*
X41889Y-35362D01*
X41889Y-35362D02*
X36850Y-35362D01*
X36850Y-35362D02*
X36850Y-33987D01*
X36850Y-32059D02*
X36850Y-29023D01*
X41889Y-29023D02*
X41889Y-32059D01*
X41889Y-29023D02*
X36850Y-29023D01*
X40433Y-56594D02*
X40433Y-66633D01*
X40433Y-66633D02*
X64645Y-66633D01*
X64645Y-66633D02*
X64645Y-56594D01*
X64645Y-56594D02*
X40433Y-56594D01*
X36594Y-53346D02*
X36594Y-69881D01*
X36594Y-69881D02*
X68484Y-69881D01*
X68484Y-69881D02*
X68484Y-53346D01*
X68484Y-53346D02*
X36594Y-53346D01*
X36988Y-72047D02*
G75*
G03X36988Y-72047I-590J0D01*
G74*
G01*
X69271Y-72047D02*
G75*
G03X69271Y-72047I-590J0D01*
G74*
G01*
X69271Y-50393D02*
G75*
G03X69271Y-50393I-590J0D01*
G74*
G01*
X36988Y-50393D02*
G75*
G03X36988Y-50393I-590J0D01*
G74*
G01*
X35413Y-49409D02*
X35413Y-73031D01*
X35413Y-73031D02*
X69665Y-73031D01*
X69665Y-73031D02*
X69665Y-49409D01*
X35413Y-49409D02*
X69665Y-49409D01*
X54850Y-50893D02*
X53850Y-50893D01*
X53850Y-49893D02*
X54850Y-49893D01*
X53850Y-50893D02*
X38850Y-50893D01*
X38850Y-49893D02*
X53850Y-49893D01*
X54850Y-49893D02*
X54850Y-50893D01*
X38850Y-50893D02*
X38850Y-49893D01*
X41377Y-37145D02*
X41259Y-37145D01*
X41377Y-39232D02*
X41259Y-39232D01*
X37362Y-37145D02*
X37480Y-37145D01*
X37362Y-39232D02*
X37480Y-39232D01*
X41377Y-39232D02*
X41377Y-37145D01*
X37362Y-39232D02*
X37362Y-37145D01*
X54842Y-43700D02*
X54645Y-43700D01*
X54645Y-43700D02*
X54645Y-42913D01*
X54645Y-42913D02*
X54842Y-42913D01*
X54842Y-46307D02*
X51456Y-46307D01*
X51456Y-46307D02*
X51456Y-40307D01*
X51456Y-40307D02*
X54842Y-40307D01*
X54842Y-40307D02*
X54842Y-46307D01*
X54149Y-41807D02*
X54149Y-44807D01*
X52149Y-44807D02*
X52149Y-41807D01*
X52149Y-41807D02*
X54149Y-41807D01*
X52149Y-44807D02*
X54149Y-44807D01*
X45669Y-39527D02*
X45669Y-40000D01*
X53149Y-36771D02*
X53149Y-37244D01*
X42283Y-35039D02*
X42755Y-35039D01*
X52913Y-48031D02*
X53385Y-48031D01*
X41417Y-46653D02*
X41259Y-46653D01*
X41850Y-48622D02*
X42322Y-48622D01*
X42322Y-48622D02*
X42322Y-46653D01*
X42322Y-46653D02*
X42165Y-46653D01*
X40354Y-48622D02*
X40826Y-48622D01*
X40354Y-48622D02*
X40354Y-46653D01*
X40354Y-46653D02*
X40511Y-46653D01*
X54409Y-36102D02*
X54409Y-31889D01*
X51771Y-31889D02*
X51771Y-36102D01*
X51771Y-36102D02*
X54724Y-36102D01*
X54724Y-36102D02*
X54724Y-31889D01*
X54724Y-31889D02*
X51771Y-31889D01*
X45303Y-41732D02*
G75*
G03X45303Y-41732I-27J0D01*
G74*
G01*
X48228Y-42007D02*
X48228Y-41929D01*
X48228Y-41929D02*
X48149Y-41929D01*
X48149Y-44685D02*
X48228Y-44685D01*
X48228Y-44685D02*
X48228Y-44606D01*
X45472Y-44606D02*
X45472Y-44685D01*
X45472Y-44685D02*
X45551Y-44685D01*
X45551Y-41929D02*
X45472Y-41929D01*
X45472Y-41929D02*
X45472Y-42007D01*
X43614Y-46389D02*
G75*
G03X42759Y-47244I0J-854D01*
G74*
G01*
X46145Y-48098D02*
G75*
G03X47000Y-47244I0J854D01*
G74*
G01*
X47001Y-47244D02*
G75*
G03X46147Y-46389I-854J0D01*
G74*
G01*
X42761Y-47244D02*
G75*
G03X43616Y-48098I854J0D01*
G74*
G01*
X43616Y-48098D02*
X46147Y-48098D01*
X43616Y-46389D02*
X46147Y-46389D01*
X48779Y-35236D02*
X48779Y-33779D01*
X44921Y-35236D02*
X44921Y-33779D01*
X44921Y-30905D02*
X44921Y-32362D01*
X48779Y-30905D02*
X48779Y-32362D01*
X45827Y-33661D02*
G75*
G03X47873Y-33661I1022J590D01*
G74*
G01*
X47873Y-32480D02*
G75*
G03X45827Y-32480I-1022J-590D01*
G74*
G01*
X44921Y-35236D02*
X48779Y-35236D01*
X44921Y-30905D02*
X48779Y-30905D01*
X44028Y-34176D02*
X44010Y-34195D01*
X43953Y-34214D01*
X43916Y-34214D01*
X43860Y-34195D01*
X43822Y-34158D01*
X43803Y-34120D01*
X43785Y-34045D01*
X43785Y-33989D01*
X43803Y-33914D01*
X43822Y-33877D01*
X43860Y-33839D01*
X43916Y-33820D01*
X43953Y-33820D01*
X44010Y-33839D01*
X44028Y-33858D01*
X44216Y-34214D02*
X44291Y-34214D01*
X44328Y-34195D01*
X44347Y-34176D01*
X44385Y-34120D01*
X44403Y-34045D01*
X44403Y-33895D01*
X44385Y-33858D01*
X44366Y-33839D01*
X44328Y-33820D01*
X44253Y-33820D01*
X44216Y-33839D01*
X44197Y-33858D01*
X44178Y-33895D01*
X44178Y-33989D01*
X44197Y-34026D01*
X44216Y-34045D01*
X44253Y-34064D01*
X44328Y-34064D01*
X44366Y-34045D01*
X44385Y-34026D01*
X44403Y-33989D01*
X40476Y-42604D02*
X40494Y-42622D01*
X40513Y-42679D01*
X40513Y-42716D01*
X40494Y-42772D01*
X40457Y-42810D01*
X40419Y-42829D01*
X40344Y-42847D01*
X40288Y-42847D01*
X40213Y-42829D01*
X40176Y-42810D01*
X40138Y-42772D01*
X40119Y-42716D01*
X40119Y-42679D01*
X40138Y-42622D01*
X40157Y-42604D01*
X40119Y-42360D02*
X40119Y-42285D01*
X40138Y-42247D01*
X40176Y-42210D01*
X40251Y-42191D01*
X40382Y-42191D01*
X40457Y-42210D01*
X40494Y-42247D01*
X40513Y-42285D01*
X40513Y-42360D01*
X40494Y-42397D01*
X40457Y-42435D01*
X40382Y-42454D01*
X40251Y-42454D01*
X40176Y-42435D01*
X40138Y-42397D01*
X40119Y-42360D01*
X40513Y-42022D02*
X40119Y-42022D01*
X40513Y-41797D01*
X40119Y-41797D01*
X40513Y-41404D02*
X40513Y-41629D01*
X40513Y-41516D02*
X40119Y-41516D01*
X40176Y-41554D01*
X40213Y-41591D01*
X40232Y-41629D01*
X40860Y-35751D02*
X40841Y-35770D01*
X40785Y-35789D01*
X40748Y-35789D01*
X40691Y-35770D01*
X40654Y-35733D01*
X40635Y-35695D01*
X40616Y-35620D01*
X40616Y-35564D01*
X40635Y-35489D01*
X40654Y-35451D01*
X40691Y-35414D01*
X40748Y-35395D01*
X40785Y-35395D01*
X40841Y-35414D01*
X40860Y-35433D01*
X41104Y-35395D02*
X41179Y-35395D01*
X41216Y-35414D01*
X41254Y-35451D01*
X41272Y-35526D01*
X41272Y-35658D01*
X41254Y-35733D01*
X41216Y-35770D01*
X41179Y-35789D01*
X41104Y-35789D01*
X41066Y-35770D01*
X41029Y-35733D01*
X41010Y-35658D01*
X41010Y-35526D01*
X41029Y-35451D01*
X41066Y-35414D01*
X41104Y-35395D01*
X41441Y-35789D02*
X41441Y-35395D01*
X41666Y-35789D01*
X41666Y-35395D01*
X41835Y-35433D02*
X41854Y-35414D01*
X41891Y-35395D01*
X41985Y-35395D01*
X42022Y-35414D01*
X42041Y-35433D01*
X42060Y-35470D01*
X42060Y-35508D01*
X42041Y-35564D01*
X41816Y-35789D01*
X42060Y-35789D01*
X35845Y-48978D02*
X35845Y-48584D01*
X35939Y-48584D01*
X35995Y-48603D01*
X36032Y-48640D01*
X36051Y-48678D01*
X36070Y-48753D01*
X36070Y-48809D01*
X36051Y-48884D01*
X36032Y-48922D01*
X35995Y-48959D01*
X35939Y-48978D01*
X35845Y-48978D01*
X36239Y-48978D02*
X36239Y-48584D01*
X36407Y-48959D02*
X36464Y-48978D01*
X36557Y-48978D01*
X36595Y-48959D01*
X36614Y-48940D01*
X36632Y-48903D01*
X36632Y-48865D01*
X36614Y-48828D01*
X36595Y-48809D01*
X36557Y-48790D01*
X36482Y-48772D01*
X36445Y-48753D01*
X36426Y-48734D01*
X36407Y-48697D01*
X36407Y-48659D01*
X36426Y-48622D01*
X36445Y-48603D01*
X36482Y-48584D01*
X36576Y-48584D01*
X36632Y-48603D01*
X36801Y-48978D02*
X36801Y-48584D01*
X36951Y-48584D01*
X36989Y-48603D01*
X37007Y-48622D01*
X37026Y-48659D01*
X37026Y-48715D01*
X37007Y-48753D01*
X36989Y-48772D01*
X36951Y-48790D01*
X36801Y-48790D01*
X37401Y-48978D02*
X37176Y-48978D01*
X37289Y-48978D02*
X37289Y-48584D01*
X37251Y-48640D01*
X37214Y-48678D01*
X37176Y-48697D01*
X44277Y-63006D02*
X44277Y-60053D01*
X44980Y-60053D01*
X45402Y-60194D01*
X45683Y-60475D01*
X45823Y-60756D01*
X45964Y-61318D01*
X45964Y-61740D01*
X45823Y-62303D01*
X45683Y-62584D01*
X45402Y-62865D01*
X44980Y-63006D01*
X44277Y-63006D01*
X47230Y-63006D02*
X47230Y-60053D01*
X48495Y-62865D02*
X48917Y-63006D01*
X49620Y-63006D01*
X49901Y-62865D01*
X50042Y-62724D01*
X50182Y-62443D01*
X50182Y-62162D01*
X50042Y-61881D01*
X49901Y-61740D01*
X49620Y-61600D01*
X49057Y-61459D01*
X48776Y-61318D01*
X48636Y-61178D01*
X48495Y-60897D01*
X48495Y-60615D01*
X48636Y-60334D01*
X48776Y-60194D01*
X49057Y-60053D01*
X49760Y-60053D01*
X50182Y-60194D01*
X51448Y-63006D02*
X51448Y-60053D01*
X52573Y-60053D01*
X52854Y-60194D01*
X52994Y-60334D01*
X53135Y-60615D01*
X53135Y-61037D01*
X52994Y-61318D01*
X52854Y-61459D01*
X52573Y-61600D01*
X51448Y-61600D01*
X55807Y-63006D02*
X54401Y-63006D01*
X54401Y-60053D01*
X56650Y-62162D02*
X58056Y-62162D01*
X56369Y-63006D02*
X57353Y-60053D01*
X58338Y-63006D01*
X59884Y-61600D02*
X59884Y-63006D01*
X58900Y-60053D02*
X59884Y-61600D01*
X60868Y-60053D01*
X41891Y-37785D02*
X41497Y-37785D01*
X41854Y-37373D02*
X41872Y-37392D01*
X41891Y-37448D01*
X41891Y-37485D01*
X41872Y-37542D01*
X41835Y-37579D01*
X41797Y-37598D01*
X41722Y-37617D01*
X41666Y-37617D01*
X41591Y-37598D01*
X41554Y-37579D01*
X41516Y-37542D01*
X41497Y-37485D01*
X41497Y-37448D01*
X41516Y-37392D01*
X41535Y-37373D01*
X41891Y-36998D02*
X41891Y-37223D01*
X41891Y-37110D02*
X41497Y-37110D01*
X41554Y-37148D01*
X41591Y-37185D01*
X41610Y-37223D01*
X51396Y-40119D02*
X51396Y-39726D01*
X51565Y-40101D02*
X51621Y-40119D01*
X51715Y-40119D01*
X51752Y-40101D01*
X51771Y-40082D01*
X51790Y-40044D01*
X51790Y-40007D01*
X51771Y-39970D01*
X51752Y-39951D01*
X51715Y-39932D01*
X51640Y-39913D01*
X51602Y-39895D01*
X51584Y-39876D01*
X51565Y-39838D01*
X51565Y-39801D01*
X51584Y-39763D01*
X51602Y-39745D01*
X51640Y-39726D01*
X51734Y-39726D01*
X51790Y-39745D01*
X51959Y-40119D02*
X51959Y-39726D01*
X52109Y-39726D01*
X52146Y-39745D01*
X52165Y-39763D01*
X52184Y-39801D01*
X52184Y-39857D01*
X52165Y-39895D01*
X52146Y-39913D01*
X52109Y-39932D01*
X51959Y-39932D01*
X52559Y-40119D02*
X52334Y-40119D01*
X52446Y-40119D02*
X52446Y-39726D01*
X52409Y-39782D01*
X52371Y-39820D01*
X52334Y-39838D01*
X45603Y-40671D02*
X45472Y-40483D01*
X45378Y-40671D02*
X45378Y-40277D01*
X45528Y-40277D01*
X45566Y-40296D01*
X45584Y-40314D01*
X45603Y-40352D01*
X45603Y-40408D01*
X45584Y-40446D01*
X45566Y-40464D01*
X45528Y-40483D01*
X45378Y-40483D01*
X45978Y-40671D02*
X45753Y-40671D01*
X45866Y-40671D02*
X45866Y-40277D01*
X45828Y-40333D01*
X45791Y-40371D01*
X45753Y-40389D01*
X53083Y-37915D02*
X52952Y-37727D01*
X52859Y-37915D02*
X52859Y-37521D01*
X53008Y-37521D01*
X53046Y-37540D01*
X53065Y-37559D01*
X53083Y-37596D01*
X53083Y-37652D01*
X53065Y-37690D01*
X53046Y-37709D01*
X53008Y-37727D01*
X52859Y-37727D01*
X53233Y-37559D02*
X53252Y-37540D01*
X53290Y-37521D01*
X53383Y-37521D01*
X53421Y-37540D01*
X53440Y-37559D01*
X53458Y-37596D01*
X53458Y-37634D01*
X53440Y-37690D01*
X53215Y-37915D01*
X53458Y-37915D01*
X42454Y-34214D02*
X42322Y-34026D01*
X42229Y-34214D02*
X42229Y-33820D01*
X42379Y-33820D01*
X42416Y-33839D01*
X42435Y-33858D01*
X42454Y-33895D01*
X42454Y-33952D01*
X42435Y-33989D01*
X42416Y-34008D01*
X42379Y-34026D01*
X42229Y-34026D01*
X42585Y-33820D02*
X42829Y-33820D01*
X42697Y-33970D01*
X42754Y-33970D01*
X42791Y-33989D01*
X42810Y-34008D01*
X42829Y-34045D01*
X42829Y-34139D01*
X42810Y-34176D01*
X42791Y-34195D01*
X42754Y-34214D01*
X42641Y-34214D01*
X42604Y-34195D01*
X42585Y-34176D01*
X54056Y-48097D02*
X53869Y-48228D01*
X54056Y-48322D02*
X53663Y-48322D01*
X53663Y-48172D01*
X53682Y-48134D01*
X53700Y-48115D01*
X53738Y-48097D01*
X53794Y-48097D01*
X53832Y-48115D01*
X53850Y-48134D01*
X53869Y-48172D01*
X53869Y-48322D01*
X53794Y-47759D02*
X54056Y-47759D01*
X53644Y-47853D02*
X53925Y-47947D01*
X53925Y-47703D01*
X41272Y-46222D02*
X41141Y-46034D01*
X41047Y-46222D02*
X41047Y-45828D01*
X41197Y-45828D01*
X41235Y-45847D01*
X41254Y-45866D01*
X41272Y-45903D01*
X41272Y-45959D01*
X41254Y-45997D01*
X41235Y-46016D01*
X41197Y-46034D01*
X41047Y-46034D01*
X41629Y-45828D02*
X41441Y-45828D01*
X41422Y-46016D01*
X41441Y-45997D01*
X41479Y-45978D01*
X41572Y-45978D01*
X41610Y-45997D01*
X41629Y-46016D01*
X41647Y-46053D01*
X41647Y-46147D01*
X41629Y-46184D01*
X41610Y-46203D01*
X41572Y-46222D01*
X41479Y-46222D01*
X41441Y-46203D01*
X41422Y-46184D01*
X51518Y-34158D02*
X51537Y-34101D01*
X51537Y-34008D01*
X51518Y-33970D01*
X51499Y-33952D01*
X51462Y-33933D01*
X51424Y-33933D01*
X51387Y-33952D01*
X51368Y-33970D01*
X51349Y-34008D01*
X51331Y-34083D01*
X51312Y-34120D01*
X51293Y-34139D01*
X51256Y-34158D01*
X51218Y-34158D01*
X51181Y-34139D01*
X51162Y-34120D01*
X51143Y-34083D01*
X51143Y-33989D01*
X51162Y-33933D01*
X51537Y-33558D02*
X51537Y-33783D01*
X51537Y-33670D02*
X51143Y-33670D01*
X51199Y-33708D01*
X51237Y-33745D01*
X51256Y-33783D01*
X45566Y-45434D02*
X45566Y-45753D01*
X45584Y-45791D01*
X45603Y-45809D01*
X45641Y-45828D01*
X45716Y-45828D01*
X45753Y-45809D01*
X45772Y-45791D01*
X45791Y-45753D01*
X45791Y-45434D01*
X46184Y-45828D02*
X45959Y-45828D01*
X46072Y-45828D02*
X46072Y-45434D01*
X46034Y-45491D01*
X45997Y-45528D01*
X45959Y-45547D01*
X43578Y-48387D02*
X43841Y-48781D01*
X43841Y-48387D02*
X43578Y-48781D01*
X44197Y-48781D02*
X43972Y-48781D01*
X44085Y-48781D02*
X44085Y-48387D01*
X44047Y-48443D01*
X44010Y-48481D01*
X43972Y-48500D01*
X49371Y-35104D02*
X49184Y-35236D01*
X49371Y-35329D02*
X48978Y-35329D01*
X48978Y-35179D01*
X48997Y-35142D01*
X49015Y-35123D01*
X49053Y-35104D01*
X49109Y-35104D01*
X49146Y-35123D01*
X49165Y-35142D01*
X49184Y-35179D01*
X49184Y-35329D01*
X48978Y-34767D02*
X48978Y-34842D01*
X48997Y-34880D01*
X49015Y-34898D01*
X49071Y-34936D01*
X49146Y-34955D01*
X49296Y-34955D01*
X49334Y-34936D01*
X49353Y-34917D01*
X49371Y-34880D01*
X49371Y-34805D01*
X49353Y-34767D01*
X49334Y-34748D01*
X49296Y-34730D01*
X49203Y-34730D01*
X49165Y-34748D01*
X49146Y-34767D01*
X49128Y-34805D01*
X49128Y-34880D01*
X49146Y-34917D01*
X49165Y-34936D01*
X49203Y-34955D01*
M02*
