M48
;DRILL file {Pcbnew (2013-07-07 BZR 4022)-stable} date 11/10/2013 16:08:47
;FORMAT={2:4/ absolute / inch / keep zeros}
FMAT,2
INCH,TZ
T1C0.012
T2C0.020
T3C0.022
T4C0.036
T5C0.039
T6C0.043
T7C0.047
T8C0.091
%
G90
G05
M72
T1
X038465Y-037323
X038740Y-040276
X038740Y-041024
X039252Y-038976
X039488Y-037323
X040276Y-037323
X040315Y-046850
X040512Y-036102
X042520Y-035827
X044094Y-035827
X045787Y-042835
X045787Y-043465
X047008Y-046339
X047559Y-046339
X047638Y-045748
X047874Y-043150
X047874Y-043661
X048504Y-044961
X049213Y-044409
X049488Y-040354
X049528Y-042756
X050039Y-042835
X050984Y-040512
T2
X037795Y-035669
X038465Y-039016
X044213Y-043150
X044252Y-043780
X044882Y-040236
X046732Y-042244
T3
X043921Y-047244
X045843Y-047244
T4
X038878Y-034138
X038878Y-034925
X039862Y-034138
X039862Y-034925
T5
X039350Y-050394
X040350Y-050394
X041350Y-050394
X042350Y-050394
X043350Y-050394
X044350Y-050394
X045350Y-050394
X045866Y-035827
X046350Y-050394
X046850Y-035827
X047350Y-050394
X047835Y-035827
X048350Y-050394
X049350Y-050394
X050350Y-050394
X051350Y-050394
X052350Y-050394
X052650Y-042307
X052650Y-043307
X052650Y-044307
X053350Y-050394
X053650Y-042307
X053650Y-043307
X053650Y-044307
X054350Y-050394
T6
X038189Y-042756
X038189Y-043583
X038189Y-044606
X038189Y-045433
X039173Y-042756
X039173Y-045433
T7
X053150Y-032874
X053150Y-034843
T8
X036693Y-044094
X037000Y-033071
X037008Y-041437
X037008Y-046752
X041740Y-033071
X045118Y-033071
X048583Y-033071
T0
M30
