G04 (created by PCBNEW (2013-07-07 BZR 4022)-stable) date 11/10/2013 16:08:40*
%MOIN*%
G04 Gerber Fmt 3.4, Leading zero omitted, Abs format*
%FSLAX34Y34*%
G01*
G70*
G90*
G04 APERTURE LIST*
%ADD10C,0.00590551*%
%ADD11C,0.00393701*%
%ADD12R,0.0551181X0.0433071*%
%ADD13C,0.129921*%
%ADD14C,0.0708661*%
%ADD15C,0.0590551*%
%ADD16R,0.0629921X0.0629921*%
%ADD17C,0.0629921*%
%ADD18R,0.0177165X0.0688976*%
%ADD19R,0.0433071X0.0551181*%
%ADD20R,0.0511811X0.0787402*%
%ADD21R,0.0787402X0.0787402*%
%ADD22C,0.0866142*%
%ADD23R,0.0629921X0.0216535*%
%ADD24R,0.0216535X0.0629921*%
%ADD25C,0.0393701*%
%ADD26C,0.11811*%
%ADD27C,0.0688976*%
%ADD28C,0.0354331*%
%ADD29C,0.023622*%
%ADD30C,0.00984252*%
G04 APERTURE END LIST*
G54D10*
G54D11*
X35433Y-51181D02*
X35433Y-31496D01*
X55118Y-51181D02*
X35433Y-51181D01*
X55118Y-31496D02*
X55118Y-51181D01*
X35433Y-31496D02*
X55118Y-31496D01*
G54D12*
X44094Y-34694D03*
X44094Y-35383D03*
G54D13*
X37007Y-46751D03*
X37007Y-41437D03*
X36692Y-44094D03*
G54D14*
X38188Y-43582D03*
X38188Y-44606D03*
X38188Y-42755D03*
X38188Y-45433D03*
X39173Y-42755D03*
X39173Y-45433D03*
G54D13*
X41740Y-33070D03*
X37000Y-33070D03*
G54D15*
X39862Y-34137D03*
X38877Y-34137D03*
X39862Y-34925D03*
X38877Y-34925D03*
G54D16*
X39350Y-50393D03*
G54D17*
X41350Y-50393D03*
X40350Y-50393D03*
X42350Y-50393D03*
X43350Y-50393D03*
X44350Y-50393D03*
X45350Y-50393D03*
X46350Y-50393D03*
X47350Y-50393D03*
X48350Y-50393D03*
X49350Y-50393D03*
X50350Y-50393D03*
X51350Y-50393D03*
X52350Y-50393D03*
X53350Y-50393D03*
X54350Y-50393D03*
G54D18*
X39242Y-39606D03*
X39498Y-39606D03*
X39753Y-39606D03*
X40009Y-39606D03*
X40265Y-39606D03*
X40521Y-39606D03*
X40777Y-39606D03*
X41033Y-39606D03*
X38986Y-39606D03*
X38730Y-39606D03*
X38474Y-39606D03*
X38218Y-39606D03*
X37962Y-39606D03*
X37706Y-39606D03*
X41033Y-36771D03*
X40777Y-36771D03*
X40521Y-36771D03*
X40265Y-36771D03*
X40009Y-36771D03*
X39753Y-36771D03*
X39498Y-36771D03*
X39242Y-36771D03*
X38986Y-36771D03*
X38730Y-36771D03*
X38474Y-36771D03*
X38218Y-36771D03*
X37962Y-36771D03*
X37706Y-36771D03*
G54D16*
X53649Y-44307D03*
G54D17*
X52649Y-44307D03*
X53649Y-43307D03*
X52649Y-43307D03*
X53649Y-42307D03*
X52649Y-42307D03*
G54D19*
X45324Y-39763D03*
X46013Y-39763D03*
X52805Y-37007D03*
X53494Y-37007D03*
G54D12*
X42519Y-35383D03*
X42519Y-34694D03*
X53149Y-48375D03*
X53149Y-47687D03*
G54D20*
X40885Y-46850D03*
X41791Y-46850D03*
G54D21*
X41338Y-48425D03*
G54D22*
X53149Y-34842D03*
X53149Y-32874D03*
G54D23*
X45177Y-42204D03*
X45177Y-42519D03*
X45177Y-42834D03*
X45177Y-43149D03*
X45177Y-43464D03*
X45177Y-43779D03*
X45177Y-44094D03*
X45177Y-44409D03*
G54D24*
X45748Y-44980D03*
X46062Y-44980D03*
X46377Y-44980D03*
X46692Y-44980D03*
X47007Y-44980D03*
X47322Y-44980D03*
X47637Y-44980D03*
X47952Y-44980D03*
G54D23*
X48523Y-44409D03*
X48523Y-44094D03*
X48523Y-43779D03*
X48523Y-43464D03*
X48523Y-43149D03*
X48523Y-42834D03*
X48523Y-42519D03*
X48523Y-42204D03*
G54D24*
X47952Y-41633D03*
X47637Y-41633D03*
X47322Y-41633D03*
X47007Y-41633D03*
X46692Y-41633D03*
X46377Y-41633D03*
X46062Y-41633D03*
X45748Y-41633D03*
G54D25*
X43921Y-47244D03*
X45842Y-47244D03*
G54D26*
X48582Y-33070D03*
X45118Y-33070D03*
G54D27*
X45866Y-35826D03*
X46850Y-35826D03*
X47834Y-35826D03*
G54D28*
X44212Y-43149D03*
X44251Y-43779D03*
X44881Y-40236D03*
X46732Y-42244D03*
X38464Y-39015D03*
X37795Y-35669D03*
G54D29*
X40275Y-37322D03*
X39488Y-37322D03*
X38464Y-37322D03*
X45787Y-43464D03*
X45787Y-42834D03*
X47874Y-43149D03*
X40314Y-46850D03*
X39251Y-38976D03*
X44094Y-35826D03*
X42519Y-35826D03*
X48503Y-44960D03*
X47637Y-45748D03*
X49488Y-40354D03*
X49527Y-42755D03*
X47874Y-43661D03*
X40511Y-36102D03*
X50984Y-40511D03*
X50039Y-42834D03*
X47559Y-46338D03*
X47007Y-46338D03*
X49212Y-44409D03*
X38740Y-41023D03*
X38740Y-40275D03*
G54D30*
X44212Y-43149D02*
X45177Y-43149D01*
X44251Y-43779D02*
X45177Y-43779D01*
X45905Y-43149D02*
X46141Y-43149D01*
X45324Y-39793D02*
X45324Y-39763D01*
X44881Y-40236D02*
X45324Y-39793D01*
X46732Y-42559D02*
X46732Y-42244D01*
X46141Y-43149D02*
X46732Y-42559D01*
X45177Y-43149D02*
X45905Y-43149D01*
X45905Y-43149D02*
X45984Y-43149D01*
X45984Y-43149D02*
X46574Y-43740D01*
X45177Y-43779D02*
X45216Y-43740D01*
X46929Y-44094D02*
X48523Y-44094D01*
X46574Y-43740D02*
X46929Y-44094D01*
X45216Y-43740D02*
X46574Y-43740D01*
X51889Y-40984D02*
X51062Y-40984D01*
X53779Y-45472D02*
X54488Y-44763D01*
X54488Y-44763D02*
X54488Y-41535D01*
X54488Y-41535D02*
X53937Y-40984D01*
X53937Y-40984D02*
X51889Y-40984D01*
X53149Y-45472D02*
X53779Y-45472D01*
X47834Y-37755D02*
X47834Y-35826D01*
X51062Y-40984D02*
X47834Y-37755D01*
X53149Y-47687D02*
X53149Y-45472D01*
X52649Y-44972D02*
X52649Y-44307D01*
X53149Y-45472D02*
X52649Y-44972D01*
X40350Y-50393D02*
X40350Y-47633D01*
X38818Y-46102D02*
X38818Y-46062D01*
X40350Y-47633D02*
X38818Y-46102D01*
X41791Y-46850D02*
X41791Y-46200D01*
X38818Y-46062D02*
X38188Y-45433D01*
X41653Y-46062D02*
X38818Y-46062D01*
X41791Y-46200D02*
X41653Y-46062D01*
X38188Y-45433D02*
X37519Y-44763D01*
X37125Y-40196D02*
X37125Y-37834D01*
X37952Y-41023D02*
X37125Y-40196D01*
X37952Y-41889D02*
X37952Y-41023D01*
X37519Y-42322D02*
X37952Y-41889D01*
X37519Y-42362D02*
X37519Y-42322D01*
X37519Y-44763D02*
X37519Y-42362D01*
X38474Y-39606D02*
X38464Y-39596D01*
X38464Y-39596D02*
X38464Y-39015D01*
X38464Y-39015D02*
X38464Y-37913D01*
X39753Y-36771D02*
X39763Y-36781D01*
X39763Y-36781D02*
X39763Y-37913D01*
X36968Y-35944D02*
X37244Y-35669D01*
X38133Y-35669D02*
X38877Y-34925D01*
X37244Y-35669D02*
X37795Y-35669D01*
X37795Y-35669D02*
X38133Y-35669D01*
X36771Y-36338D02*
X36771Y-36141D01*
X37204Y-37913D02*
X37125Y-37834D01*
X37125Y-37834D02*
X36771Y-37480D01*
X36771Y-37480D02*
X36771Y-36338D01*
X44921Y-37913D02*
X39763Y-37913D01*
X39763Y-37913D02*
X38464Y-37913D01*
X38464Y-37913D02*
X37204Y-37913D01*
X36771Y-36141D02*
X36968Y-35944D01*
X36968Y-35944D02*
X37007Y-35905D01*
X47834Y-35826D02*
X47834Y-35236D01*
X47834Y-35236D02*
X47322Y-34724D01*
X47322Y-34724D02*
X45748Y-34724D01*
X45748Y-34724D02*
X44921Y-35551D01*
X44921Y-35551D02*
X44921Y-37913D01*
X44921Y-39360D02*
X45324Y-39763D01*
X44921Y-37913D02*
X44921Y-39360D01*
G54D10*
X40265Y-36771D02*
X40265Y-37312D01*
X40265Y-37312D02*
X40275Y-37322D01*
X39498Y-36771D02*
X39498Y-37312D01*
X39498Y-37312D02*
X39488Y-37322D01*
X38474Y-36771D02*
X38474Y-37312D01*
X38474Y-37312D02*
X38464Y-37322D01*
X45177Y-43464D02*
X45787Y-43464D01*
X45177Y-42834D02*
X45787Y-42834D01*
X48523Y-43149D02*
X47874Y-43149D01*
X40885Y-46850D02*
X40314Y-46850D01*
X39242Y-39606D02*
X39242Y-38986D01*
X39242Y-38986D02*
X39251Y-38976D01*
X38218Y-36771D02*
X38474Y-36771D01*
X44094Y-35383D02*
X44094Y-35826D01*
X42519Y-35383D02*
X42519Y-35826D01*
X46377Y-44980D02*
X46377Y-45511D01*
X45350Y-49098D02*
X45350Y-50393D01*
X46496Y-47952D02*
X45350Y-49098D01*
X46496Y-45629D02*
X46496Y-47952D01*
X46377Y-45511D02*
X46496Y-45629D01*
X46692Y-44980D02*
X46692Y-47992D01*
X46350Y-48334D02*
X46350Y-50393D01*
X46692Y-47992D02*
X46350Y-48334D01*
X47322Y-44980D02*
X47322Y-50366D01*
X47322Y-50366D02*
X47350Y-50393D01*
X48523Y-42519D02*
X50236Y-42519D01*
X48350Y-48933D02*
X48350Y-50393D01*
X50511Y-46771D02*
X48350Y-48933D01*
X50511Y-42795D02*
X50511Y-46771D01*
X50236Y-42519D02*
X50511Y-42795D01*
X49350Y-50393D02*
X49350Y-48129D01*
X50236Y-42204D02*
X48523Y-42204D01*
X50669Y-42637D02*
X50236Y-42204D01*
X50669Y-46811D02*
X50669Y-42637D01*
X49350Y-48129D02*
X50669Y-46811D01*
X47952Y-41633D02*
X50137Y-41633D01*
X50350Y-47326D02*
X50350Y-50393D01*
X50826Y-46850D02*
X50350Y-47326D01*
X50826Y-42322D02*
X50826Y-46850D01*
X50137Y-41633D02*
X50826Y-42322D01*
X51350Y-50393D02*
X51350Y-47255D01*
X47637Y-41181D02*
X47637Y-41633D01*
X47913Y-40905D02*
X47637Y-41181D01*
X49921Y-40905D02*
X47913Y-40905D01*
X50984Y-41968D02*
X49921Y-40905D01*
X50984Y-46889D02*
X50984Y-41968D01*
X51350Y-47255D02*
X50984Y-46889D01*
X47322Y-41633D02*
X47322Y-41062D01*
X52350Y-48059D02*
X52350Y-50393D01*
X51141Y-46850D02*
X52350Y-48059D01*
X51141Y-41850D02*
X51141Y-46850D01*
X47322Y-41062D02*
X47637Y-40748D01*
X50039Y-40748D02*
X51141Y-41850D01*
X47637Y-40748D02*
X50039Y-40748D01*
X44350Y-50393D02*
X44350Y-49074D01*
X46062Y-45787D02*
X46062Y-44980D01*
X46338Y-46062D02*
X46062Y-45787D01*
X46338Y-47913D02*
X46338Y-46062D01*
X45629Y-48622D02*
X46338Y-47913D01*
X44803Y-48622D02*
X45629Y-48622D01*
X44350Y-49074D02*
X44803Y-48622D01*
X42350Y-50393D02*
X42350Y-49460D01*
X43858Y-42519D02*
X45177Y-42519D01*
X43188Y-43188D02*
X43858Y-42519D01*
X43188Y-48622D02*
X43188Y-43188D01*
X42350Y-49460D02*
X43188Y-48622D01*
X45748Y-44980D02*
X45748Y-45826D01*
X43350Y-49248D02*
X44133Y-48464D01*
X44133Y-48464D02*
X45511Y-48464D01*
X45511Y-48464D02*
X46181Y-47795D01*
X43350Y-49248D02*
X43350Y-50393D01*
X46181Y-46259D02*
X46181Y-47795D01*
X45748Y-45826D02*
X46181Y-46259D01*
X48503Y-44960D02*
X48484Y-44980D01*
X48484Y-44980D02*
X47952Y-44980D01*
X47637Y-45748D02*
X47637Y-44980D01*
X39173Y-42755D02*
X41141Y-42755D01*
X42263Y-41633D02*
X45748Y-41633D01*
X41141Y-42755D02*
X42263Y-41633D01*
X53494Y-37007D02*
X53494Y-35187D01*
X53494Y-35187D02*
X53149Y-34842D01*
X38188Y-43582D02*
X41102Y-43582D01*
X42480Y-42204D02*
X45177Y-42204D01*
X41102Y-43582D02*
X42480Y-42204D01*
X41338Y-48425D02*
X41338Y-50381D01*
X41338Y-50381D02*
X41350Y-50393D01*
X48523Y-43779D02*
X49330Y-43779D01*
X46850Y-37716D02*
X46850Y-35826D01*
X49488Y-40354D02*
X46850Y-37716D01*
X49527Y-43582D02*
X49527Y-42755D01*
X49330Y-43779D02*
X49527Y-43582D01*
X48070Y-43464D02*
X48523Y-43464D01*
X47874Y-43661D02*
X48070Y-43464D01*
X40521Y-36112D02*
X40521Y-36771D01*
X40511Y-36102D02*
X40521Y-36112D01*
X53149Y-48375D02*
X53149Y-48858D01*
X53350Y-49059D02*
X53350Y-50393D01*
X53149Y-48858D02*
X53350Y-49059D01*
X42519Y-34694D02*
X44094Y-34694D01*
X41740Y-33070D02*
X42519Y-33850D01*
X42519Y-33850D02*
X42519Y-34694D01*
X41740Y-33070D02*
X37000Y-33070D01*
X45177Y-44094D02*
X44251Y-44094D01*
X43921Y-44425D02*
X43921Y-47244D01*
X44251Y-44094D02*
X43921Y-44425D01*
X45177Y-44409D02*
X45177Y-45492D01*
X45842Y-46157D02*
X45842Y-47244D01*
X45177Y-45492D02*
X45842Y-46157D01*
X39862Y-34925D02*
X40358Y-34925D01*
X40777Y-35344D02*
X40777Y-36771D01*
X40358Y-34925D02*
X40777Y-35344D01*
X39862Y-34137D02*
X40515Y-34137D01*
X41033Y-34655D02*
X41033Y-36771D01*
X40515Y-34137D02*
X41033Y-34655D01*
X50984Y-40511D02*
X52805Y-38690D01*
X47007Y-44980D02*
X47007Y-46338D01*
X50039Y-44409D02*
X50039Y-42834D01*
X48110Y-46338D02*
X50039Y-44409D01*
X47559Y-46338D02*
X48110Y-46338D01*
X52805Y-38690D02*
X52805Y-37007D01*
X46013Y-39763D02*
X46692Y-40442D01*
X46692Y-40442D02*
X46692Y-40590D01*
X47204Y-40590D02*
X47598Y-40590D01*
X50157Y-40590D02*
X50826Y-41259D01*
X50039Y-40590D02*
X50157Y-40590D01*
X47598Y-40590D02*
X50039Y-40590D01*
X47204Y-40590D02*
X46692Y-40590D01*
X53307Y-41259D02*
X53649Y-41602D01*
X50826Y-41259D02*
X53307Y-41259D01*
X46692Y-41633D02*
X46692Y-40590D01*
X53649Y-42307D02*
X53649Y-41602D01*
X46692Y-40590D02*
X46377Y-40590D01*
X37962Y-39606D02*
X37962Y-40246D01*
X38307Y-40590D02*
X46377Y-40590D01*
X37962Y-40246D02*
X38307Y-40590D01*
X46377Y-40590D02*
X46417Y-40590D01*
X48523Y-44409D02*
X49212Y-44409D01*
X44606Y-41141D02*
X44763Y-40984D01*
X45787Y-40984D02*
X45944Y-41141D01*
X44763Y-40984D02*
X45787Y-40984D01*
X38730Y-39606D02*
X38730Y-40265D01*
X46062Y-41259D02*
X46062Y-41633D01*
X45944Y-41141D02*
X46062Y-41259D01*
X38858Y-41141D02*
X44606Y-41141D01*
X38740Y-41023D02*
X38858Y-41141D01*
X38730Y-40265D02*
X38740Y-40275D01*
X37706Y-39606D02*
X37706Y-40305D01*
X46377Y-41023D02*
X46377Y-41633D01*
X46141Y-40787D02*
X46377Y-41023D01*
X38188Y-40787D02*
X46141Y-40787D01*
X37706Y-40305D02*
X38188Y-40787D01*
M02*
