G04 (created by PCBNEW (2013-07-07 BZR 4022)-stable) date 11/10/2013 16:08:40*
%MOIN*%
G04 Gerber Fmt 3.4, Leading zero omitted, Abs format*
%FSLAX34Y34*%
G01*
G70*
G90*
G04 APERTURE LIST*
%ADD10C,0.00590551*%
%ADD11C,0.00393701*%
%ADD12R,0.0433071X0.0551181*%
%ADD13R,0.0551181X0.0433071*%
%ADD14C,0.129921*%
%ADD15C,0.0708661*%
%ADD16C,0.0590551*%
%ADD17R,0.0629921X0.0629921*%
%ADD18C,0.0629921*%
%ADD19C,0.0866142*%
%ADD20C,0.0393701*%
%ADD21C,0.11811*%
%ADD22C,0.0688976*%
G04 APERTURE END LIST*
G54D10*
G54D11*
X35433Y-51181D02*
X35433Y-31496D01*
X55118Y-51181D02*
X35433Y-51181D01*
X55118Y-31496D02*
X55118Y-51181D01*
X35433Y-31496D02*
X55118Y-31496D01*
G54D12*
X44438Y-46456D03*
X43750Y-46456D03*
X45718Y-46456D03*
X46407Y-46456D03*
G54D13*
X44881Y-42864D03*
X44881Y-42175D03*
X44881Y-43750D03*
X44881Y-44438D03*
G54D12*
X39419Y-36614D03*
X40108Y-36614D03*
G54D13*
X38582Y-38533D03*
X38582Y-37844D03*
X40157Y-38533D03*
X40157Y-37844D03*
X37795Y-34990D03*
X37795Y-34301D03*
G54D14*
X37007Y-46751D03*
X37007Y-41437D03*
X36692Y-44094D03*
G54D15*
X38188Y-43582D03*
X38188Y-44606D03*
X38188Y-42755D03*
X38188Y-45433D03*
X39173Y-42755D03*
X39173Y-45433D03*
G54D14*
X41740Y-33070D03*
X37000Y-33070D03*
G54D16*
X39862Y-34137D03*
X38877Y-34137D03*
X39862Y-34925D03*
X38877Y-34925D03*
G54D17*
X39350Y-50393D03*
G54D18*
X41350Y-50393D03*
X40350Y-50393D03*
X42350Y-50393D03*
X43350Y-50393D03*
X44350Y-50393D03*
X45350Y-50393D03*
X46350Y-50393D03*
X47350Y-50393D03*
X48350Y-50393D03*
X49350Y-50393D03*
X50350Y-50393D03*
X51350Y-50393D03*
X52350Y-50393D03*
X53350Y-50393D03*
X54350Y-50393D03*
G54D17*
X53649Y-44307D03*
G54D18*
X52649Y-44307D03*
X53649Y-43307D03*
X52649Y-43307D03*
X53649Y-42307D03*
X52649Y-42307D03*
G54D19*
X53149Y-34842D03*
X53149Y-32874D03*
G54D20*
X43921Y-47244D03*
X45842Y-47244D03*
G54D21*
X48582Y-33070D03*
X45118Y-33070D03*
G54D22*
X45866Y-35826D03*
X46850Y-35826D03*
X47834Y-35826D03*
G54D13*
X48425Y-43651D03*
X48425Y-42962D03*
M02*
